<mxfile host="app.diagrams.net" modified="2023-02-22T09:20:31.180Z" agent="5.0 (Windows NT 10.0; Win64; x64) AppleWebKit/537.36 (KHTML, like Gecko) Chrome/109.0.0.0 Safari/537.36" etag="B56ucUzikpuhNukc4aUf" version="20.8.22" type="github">
  <diagram name="Page-1" id="NdD3XxwZcL9HfhGW4-kb">
    <mxGraphModel dx="1167" dy="1737" grid="1" gridSize="10" guides="1" tooltips="1" connect="1" arrows="1" fold="1" page="1" pageScale="1" pageWidth="850" pageHeight="1100" math="0" shadow="0">
      <root>
        <mxCell id="0" />
        <mxCell id="1" parent="0" />
        <mxCell id="CaHp7utGRdH5ZOx2nv2D-1" value="Admin&lt;br&gt;" style="shape=umlActor;verticalLabelPosition=bottom;verticalAlign=top;html=1;outlineConnect=0;" vertex="1" parent="1">
          <mxGeometry x="900" y="1000" width="30" height="60" as="geometry" />
        </mxCell>
        <mxCell id="CaHp7utGRdH5ZOx2nv2D-2" value="Guest" style="shape=umlActor;verticalLabelPosition=bottom;verticalAlign=top;html=1;outlineConnect=0;" vertex="1" parent="1">
          <mxGeometry x="420" y="122.64" width="30" height="60" as="geometry" />
        </mxCell>
        <mxCell id="CaHp7utGRdH5ZOx2nv2D-3" value="Student" style="shape=umlActor;verticalLabelPosition=bottom;verticalAlign=top;html=1;outlineConnect=0;" vertex="1" parent="1">
          <mxGeometry x="230" y="520" width="30" height="60" as="geometry" />
        </mxCell>
        <mxCell id="CaHp7utGRdH5ZOx2nv2D-4" value="Instructor" style="shape=umlActor;verticalLabelPosition=bottom;verticalAlign=top;html=1;outlineConnect=0;" vertex="1" parent="1">
          <mxGeometry x="410" y="19.999999999999986" width="30" height="60" as="geometry" />
        </mxCell>
        <mxCell id="CaHp7utGRdH5ZOx2nv2D-5" value="Search" style="ellipse;whiteSpace=wrap;html=1;" vertex="1" parent="1">
          <mxGeometry x="680" y="20" width="120" height="80" as="geometry" />
        </mxCell>
        <mxCell id="CaHp7utGRdH5ZOx2nv2D-6" value="View categories" style="ellipse;whiteSpace=wrap;html=1;" vertex="1" parent="1">
          <mxGeometry x="680" y="112.64" width="120" height="80" as="geometry" />
        </mxCell>
        <mxCell id="CaHp7utGRdH5ZOx2nv2D-8" value="View student review" style="ellipse;whiteSpace=wrap;html=1;" vertex="1" parent="1">
          <mxGeometry x="680" y="212.64" width="120" height="80" as="geometry" />
        </mxCell>
        <mxCell id="CaHp7utGRdH5ZOx2nv2D-9" value="View preview course" style="ellipse;whiteSpace=wrap;html=1;" vertex="1" parent="1">
          <mxGeometry x="680" y="312.64" width="120" height="80" as="geometry" />
        </mxCell>
        <mxCell id="CaHp7utGRdH5ZOx2nv2D-46" style="edgeStyle=orthogonalEdgeStyle;rounded=0;orthogonalLoop=1;jettySize=auto;html=1;exitX=0.5;exitY=1;exitDx=0;exitDy=0;endArrow=none;endFill=0;startArrow=block;startFill=0;" edge="1" parent="1" source="CaHp7utGRdH5ZOx2nv2D-10" target="CaHp7utGRdH5ZOx2nv2D-13">
          <mxGeometry relative="1" as="geometry">
            <mxPoint x="820" y="602.64" as="targetPoint" />
            <Array as="points">
              <mxPoint x="740" y="523" />
              <mxPoint x="670" y="523" />
              <mxPoint x="670" y="583" />
            </Array>
          </mxGeometry>
        </mxCell>
        <mxCell id="CaHp7utGRdH5ZOx2nv2D-47" value="&amp;lt;&amp;lt;Extend&amp;gt;&amp;gt;" style="edgeLabel;html=1;align=center;verticalAlign=middle;resizable=0;points=[];" vertex="1" connectable="0" parent="CaHp7utGRdH5ZOx2nv2D-46">
          <mxGeometry x="0.2088" y="5" relative="1" as="geometry">
            <mxPoint x="5" y="13" as="offset" />
          </mxGeometry>
        </mxCell>
        <mxCell id="CaHp7utGRdH5ZOx2nv2D-10" value="View course" style="ellipse;whiteSpace=wrap;html=1;" vertex="1" parent="1">
          <mxGeometry x="680" y="422.64" width="120" height="80" as="geometry" />
        </mxCell>
        <mxCell id="CaHp7utGRdH5ZOx2nv2D-11" value="Add to cart" style="ellipse;whiteSpace=wrap;html=1;" vertex="1" parent="1">
          <mxGeometry x="440" y="350" width="120" height="80" as="geometry" />
        </mxCell>
        <mxCell id="CaHp7utGRdH5ZOx2nv2D-13" value="Add to wishlist" style="ellipse;whiteSpace=wrap;html=1;" vertex="1" parent="1">
          <mxGeometry x="540" y="542.64" width="120" height="80" as="geometry" />
        </mxCell>
        <mxCell id="CaHp7utGRdH5ZOx2nv2D-14" value="Review course" style="ellipse;whiteSpace=wrap;html=1;" vertex="1" parent="1">
          <mxGeometry x="570" y="632.64" width="120" height="80" as="geometry" />
        </mxCell>
        <mxCell id="CaHp7utGRdH5ZOx2nv2D-15" value="Study course" style="ellipse;whiteSpace=wrap;html=1;" vertex="1" parent="1">
          <mxGeometry x="630" y="712.64" width="120" height="80" as="geometry" />
        </mxCell>
        <mxCell id="CaHp7utGRdH5ZOx2nv2D-56" style="edgeStyle=orthogonalEdgeStyle;rounded=0;orthogonalLoop=1;jettySize=auto;html=1;startArrow=block;startFill=0;endArrow=none;endFill=0;exitX=0.2;exitY=0.899;exitDx=0;exitDy=0;exitPerimeter=0;" edge="1" parent="1" source="CaHp7utGRdH5ZOx2nv2D-16">
          <mxGeometry relative="1" as="geometry">
            <mxPoint x="619.9835931288072" y="869.4242712474617" as="sourcePoint" />
            <mxPoint x="532.41" y="818.8523616632825" as="targetPoint" />
            <Array as="points">
              <mxPoint x="532" y="882" />
            </Array>
          </mxGeometry>
        </mxCell>
        <mxCell id="CaHp7utGRdH5ZOx2nv2D-59" value="&amp;lt;&amp;lt;include&amp;gt;&amp;gt;" style="edgeLabel;html=1;align=center;verticalAlign=middle;resizable=0;points=[];" vertex="1" connectable="0" parent="CaHp7utGRdH5ZOx2nv2D-56">
          <mxGeometry x="0.7221" y="1" relative="1" as="geometry">
            <mxPoint x="45" y="39" as="offset" />
          </mxGeometry>
        </mxCell>
        <mxCell id="CaHp7utGRdH5ZOx2nv2D-57" style="edgeStyle=orthogonalEdgeStyle;rounded=0;orthogonalLoop=1;jettySize=auto;html=1;entryX=1;entryY=0.5;entryDx=0;entryDy=0;startArrow=block;startFill=0;endArrow=none;endFill=0;" edge="1" parent="1" target="CaHp7utGRdH5ZOx2nv2D-18">
          <mxGeometry relative="1" as="geometry">
            <mxPoint x="670" y="890" as="sourcePoint" />
            <Array as="points">
              <mxPoint x="670" y="950" />
            </Array>
          </mxGeometry>
        </mxCell>
        <mxCell id="CaHp7utGRdH5ZOx2nv2D-58" value="&amp;lt;&amp;lt;include&amp;gt;&amp;gt;" style="edgeLabel;html=1;align=center;verticalAlign=middle;resizable=0;points=[];" vertex="1" connectable="0" parent="CaHp7utGRdH5ZOx2nv2D-57">
          <mxGeometry x="0.3164" relative="1" as="geometry">
            <mxPoint x="30" as="offset" />
          </mxGeometry>
        </mxCell>
        <mxCell id="CaHp7utGRdH5ZOx2nv2D-16" value="Make payment" style="ellipse;whiteSpace=wrap;html=1;" vertex="1" parent="1">
          <mxGeometry x="620" y="810" width="120" height="80" as="geometry" />
        </mxCell>
        <mxCell id="CaHp7utGRdH5ZOx2nv2D-17" value="Apply coupon" style="ellipse;whiteSpace=wrap;html=1;" vertex="1" parent="1">
          <mxGeometry x="470" y="750" width="120" height="80" as="geometry" />
        </mxCell>
        <mxCell id="CaHp7utGRdH5ZOx2nv2D-18" value="Cancel payment" style="ellipse;whiteSpace=wrap;html=1;" vertex="1" parent="1">
          <mxGeometry x="440" y="910" width="120" height="80" as="geometry" />
        </mxCell>
        <mxCell id="CaHp7utGRdH5ZOx2nv2D-19" value="Return payment" style="ellipse;whiteSpace=wrap;html=1;" vertex="1" parent="1">
          <mxGeometry x="580" y="970" width="120" height="80" as="geometry" />
        </mxCell>
        <mxCell id="CaHp7utGRdH5ZOx2nv2D-20" value="Create couponAll" style="ellipse;whiteSpace=wrap;html=1;" vertex="1" parent="1">
          <mxGeometry x="710" y="980" width="120" height="80" as="geometry" />
        </mxCell>
        <mxCell id="CaHp7utGRdH5ZOx2nv2D-21" value="Create couponCourse" style="ellipse;whiteSpace=wrap;html=1;" vertex="1" parent="1">
          <mxGeometry x="480" y="-407.36" width="120" height="80" as="geometry" />
        </mxCell>
        <mxCell id="CaHp7utGRdH5ZOx2nv2D-22" value="Create couponInstructor" style="ellipse;whiteSpace=wrap;html=1;" vertex="1" parent="1">
          <mxGeometry x="480" y="-307.36" width="120" height="80" as="geometry" />
        </mxCell>
        <mxCell id="CaHp7utGRdH5ZOx2nv2D-23" value="Add course" style="ellipse;whiteSpace=wrap;html=1;" vertex="1" parent="1">
          <mxGeometry x="480" y="-190" width="120" height="80" as="geometry" />
        </mxCell>
        <mxCell id="CaHp7utGRdH5ZOx2nv2D-24" value="Edit profile" style="ellipse;whiteSpace=wrap;html=1;" vertex="1" parent="1">
          <mxGeometry x="240" y="277.36" width="120" height="80" as="geometry" />
        </mxCell>
        <mxCell id="CaHp7utGRdH5ZOx2nv2D-25" value="Edit course" style="ellipse;whiteSpace=wrap;html=1;" vertex="1" parent="1">
          <mxGeometry x="480" y="-70" width="120" height="80" as="geometry" />
        </mxCell>
        <mxCell id="CaHp7utGRdH5ZOx2nv2D-30" value="" style="endArrow=none;html=1;rounded=0;" edge="1" parent="1">
          <mxGeometry width="50" height="50" relative="1" as="geometry">
            <mxPoint x="450" y="142.64" as="sourcePoint" />
            <mxPoint x="680" y="60" as="targetPoint" />
          </mxGeometry>
        </mxCell>
        <mxCell id="CaHp7utGRdH5ZOx2nv2D-31" value="" style="endArrow=none;html=1;rounded=0;entryX=0;entryY=0.5;entryDx=0;entryDy=0;" edge="1" parent="1" target="CaHp7utGRdH5ZOx2nv2D-6">
          <mxGeometry width="50" height="50" relative="1" as="geometry">
            <mxPoint x="450" y="142.64" as="sourcePoint" />
            <mxPoint x="660" y="92.64" as="targetPoint" />
          </mxGeometry>
        </mxCell>
        <mxCell id="CaHp7utGRdH5ZOx2nv2D-33" value="" style="endArrow=none;html=1;rounded=0;exitX=1;exitY=0.3333333333333333;exitDx=0;exitDy=0;exitPerimeter=0;entryX=0;entryY=0.5;entryDx=0;entryDy=0;" edge="1" parent="1" source="CaHp7utGRdH5ZOx2nv2D-2" target="CaHp7utGRdH5ZOx2nv2D-8">
          <mxGeometry width="50" height="50" relative="1" as="geometry">
            <mxPoint x="610" y="142.64" as="sourcePoint" />
            <mxPoint x="660" y="92.64" as="targetPoint" />
          </mxGeometry>
        </mxCell>
        <mxCell id="CaHp7utGRdH5ZOx2nv2D-34" value="" style="endArrow=none;html=1;rounded=0;exitX=0;exitY=0.3333333333333333;exitDx=0;exitDy=0;exitPerimeter=0;entryX=1;entryY=0.5;entryDx=0;entryDy=0;" edge="1" parent="1" source="CaHp7utGRdH5ZOx2nv2D-1" target="CaHp7utGRdH5ZOx2nv2D-20">
          <mxGeometry width="50" height="50" relative="1" as="geometry">
            <mxPoint x="655" y="822.64" as="sourcePoint" />
            <mxPoint x="705" y="772.64" as="targetPoint" />
          </mxGeometry>
        </mxCell>
        <mxCell id="CaHp7utGRdH5ZOx2nv2D-35" value="" style="endArrow=none;html=1;rounded=0;entryX=0;entryY=0.5;entryDx=0;entryDy=0;" edge="1" parent="1" target="CaHp7utGRdH5ZOx2nv2D-9">
          <mxGeometry width="50" height="50" relative="1" as="geometry">
            <mxPoint x="450" y="142.64" as="sourcePoint" />
            <mxPoint x="810" y="262.64" as="targetPoint" />
          </mxGeometry>
        </mxCell>
        <mxCell id="CaHp7utGRdH5ZOx2nv2D-37" value="" style="endArrow=none;html=1;rounded=0;entryX=0;entryY=0.5;entryDx=0;entryDy=0;" edge="1" parent="1" target="CaHp7utGRdH5ZOx2nv2D-10">
          <mxGeometry width="50" height="50" relative="1" as="geometry">
            <mxPoint x="450" y="142.64" as="sourcePoint" />
            <mxPoint x="810" y="262.64" as="targetPoint" />
          </mxGeometry>
        </mxCell>
        <mxCell id="CaHp7utGRdH5ZOx2nv2D-38" value="" style="endArrow=none;html=1;rounded=0;entryX=0;entryY=0.5;entryDx=0;entryDy=0;exitX=1;exitY=0.3333333333333333;exitDx=0;exitDy=0;exitPerimeter=0;" edge="1" parent="1" source="CaHp7utGRdH5ZOx2nv2D-3" target="CaHp7utGRdH5ZOx2nv2D-11">
          <mxGeometry width="50" height="50" relative="1" as="geometry">
            <mxPoint x="430" y="582.64" as="sourcePoint" />
            <mxPoint x="810" y="522.64" as="targetPoint" />
          </mxGeometry>
        </mxCell>
        <mxCell id="CaHp7utGRdH5ZOx2nv2D-41" value="" style="endArrow=none;html=1;rounded=0;exitX=1;exitY=0.3333333333333333;exitDx=0;exitDy=0;exitPerimeter=0;" edge="1" parent="1" source="CaHp7utGRdH5ZOx2nv2D-3" target="CaHp7utGRdH5ZOx2nv2D-10">
          <mxGeometry width="50" height="50" relative="1" as="geometry">
            <mxPoint x="760" y="492.64" as="sourcePoint" />
            <mxPoint x="810" y="442.64" as="targetPoint" />
          </mxGeometry>
        </mxCell>
        <mxCell id="CaHp7utGRdH5ZOx2nv2D-42" value="" style="endArrow=none;html=1;rounded=0;entryX=0;entryY=0.5;entryDx=0;entryDy=0;" edge="1" parent="1" target="CaHp7utGRdH5ZOx2nv2D-13">
          <mxGeometry width="50" height="50" relative="1" as="geometry">
            <mxPoint x="260" y="540" as="sourcePoint" />
            <mxPoint x="810" y="442.64" as="targetPoint" />
          </mxGeometry>
        </mxCell>
        <mxCell id="CaHp7utGRdH5ZOx2nv2D-43" value="" style="endArrow=none;html=1;rounded=0;exitX=1;exitY=0.3333333333333333;exitDx=0;exitDy=0;exitPerimeter=0;entryX=0.003;entryY=0.585;entryDx=0;entryDy=0;entryPerimeter=0;" edge="1" parent="1" source="CaHp7utGRdH5ZOx2nv2D-3" target="CaHp7utGRdH5ZOx2nv2D-14">
          <mxGeometry width="50" height="50" relative="1" as="geometry">
            <mxPoint x="760" y="752.64" as="sourcePoint" />
            <mxPoint x="810" y="702.64" as="targetPoint" />
          </mxGeometry>
        </mxCell>
        <mxCell id="CaHp7utGRdH5ZOx2nv2D-44" value="" style="endArrow=none;html=1;rounded=0;entryX=0;entryY=0.5;entryDx=0;entryDy=0;" edge="1" parent="1" target="CaHp7utGRdH5ZOx2nv2D-15">
          <mxGeometry width="50" height="50" relative="1" as="geometry">
            <mxPoint x="260" y="540" as="sourcePoint" />
            <mxPoint x="810" y="702.64" as="targetPoint" />
          </mxGeometry>
        </mxCell>
        <mxCell id="CaHp7utGRdH5ZOx2nv2D-45" value="" style="endArrow=none;html=1;rounded=0;" edge="1" parent="1" target="CaHp7utGRdH5ZOx2nv2D-16">
          <mxGeometry width="50" height="50" relative="1" as="geometry">
            <mxPoint x="260" y="540" as="sourcePoint" />
            <mxPoint x="611.3200000000002" y="874.56" as="targetPoint" />
          </mxGeometry>
        </mxCell>
        <mxCell id="CaHp7utGRdH5ZOx2nv2D-48" style="edgeStyle=orthogonalEdgeStyle;rounded=0;orthogonalLoop=1;jettySize=auto;html=1;exitX=0.584;exitY=1;exitDx=0;exitDy=0;endArrow=none;endFill=0;exitPerimeter=0;startArrow=block;startFill=0;" edge="1" parent="1" source="CaHp7utGRdH5ZOx2nv2D-10" target="CaHp7utGRdH5ZOx2nv2D-14">
          <mxGeometry relative="1" as="geometry">
            <mxPoint x="780" y="652.64" as="targetPoint" />
            <mxPoint x="750" y="512.64" as="sourcePoint" />
            <Array as="points">
              <mxPoint x="750" y="533" />
              <mxPoint x="720" y="533" />
              <mxPoint x="720" y="673" />
            </Array>
          </mxGeometry>
        </mxCell>
        <mxCell id="CaHp7utGRdH5ZOx2nv2D-49" value="&amp;lt;&amp;lt;Extend&amp;gt;&amp;gt;" style="edgeLabel;html=1;align=center;verticalAlign=middle;resizable=0;points=[];" vertex="1" connectable="0" parent="CaHp7utGRdH5ZOx2nv2D-48">
          <mxGeometry x="0.2088" y="5" relative="1" as="geometry">
            <mxPoint x="-5" y="11" as="offset" />
          </mxGeometry>
        </mxCell>
        <mxCell id="CaHp7utGRdH5ZOx2nv2D-50" style="edgeStyle=orthogonalEdgeStyle;rounded=0;orthogonalLoop=1;jettySize=auto;html=1;endArrow=none;endFill=0;startArrow=block;startFill=0;" edge="1" parent="1" source="CaHp7utGRdH5ZOx2nv2D-10">
          <mxGeometry relative="1" as="geometry">
            <mxPoint x="730" y="782.64" as="targetPoint" />
            <mxPoint x="790" y="523.64" as="sourcePoint" />
            <Array as="points">
              <mxPoint x="780" y="783" />
            </Array>
          </mxGeometry>
        </mxCell>
        <mxCell id="CaHp7utGRdH5ZOx2nv2D-51" value="&amp;lt;&amp;lt;Extend&amp;gt;&amp;gt;" style="edgeLabel;html=1;align=center;verticalAlign=middle;resizable=0;points=[];" vertex="1" connectable="0" parent="CaHp7utGRdH5ZOx2nv2D-50">
          <mxGeometry x="0.2088" y="5" relative="1" as="geometry">
            <mxPoint x="-15" y="33" as="offset" />
          </mxGeometry>
        </mxCell>
        <mxCell id="CaHp7utGRdH5ZOx2nv2D-52" style="edgeStyle=orthogonalEdgeStyle;rounded=0;orthogonalLoop=1;jettySize=auto;html=1;endArrow=none;endFill=0;startArrow=block;startFill=0;" edge="1" parent="1" source="CaHp7utGRdH5ZOx2nv2D-10" target="CaHp7utGRdH5ZOx2nv2D-16">
          <mxGeometry relative="1" as="geometry">
            <mxPoint x="730" y="882.6399999999999" as="targetPoint" />
            <mxPoint x="770" y="510.64" as="sourcePoint" />
            <Array as="points">
              <mxPoint x="790" y="583" />
              <mxPoint x="800" y="583" />
              <mxPoint x="800" y="883" />
            </Array>
          </mxGeometry>
        </mxCell>
        <mxCell id="CaHp7utGRdH5ZOx2nv2D-53" value="&amp;lt;&amp;lt;Extend&amp;gt;&amp;gt;" style="edgeLabel;html=1;align=center;verticalAlign=middle;resizable=0;points=[];" vertex="1" connectable="0" parent="CaHp7utGRdH5ZOx2nv2D-52">
          <mxGeometry x="0.2088" y="5" relative="1" as="geometry">
            <mxPoint x="-15" y="78" as="offset" />
          </mxGeometry>
        </mxCell>
        <mxCell id="CaHp7utGRdH5ZOx2nv2D-60" value="" style="endArrow=none;html=1;rounded=0;" edge="1" parent="1" source="CaHp7utGRdH5ZOx2nv2D-17">
          <mxGeometry width="50" height="50" relative="1" as="geometry">
            <mxPoint x="370" y="940" as="sourcePoint" />
            <mxPoint x="260" y="540" as="targetPoint" />
          </mxGeometry>
        </mxCell>
        <mxCell id="CaHp7utGRdH5ZOx2nv2D-61" value="" style="endArrow=none;html=1;rounded=0;" edge="1" parent="1" source="CaHp7utGRdH5ZOx2nv2D-18">
          <mxGeometry width="50" height="50" relative="1" as="geometry">
            <mxPoint x="280" y="780" as="sourcePoint" />
            <mxPoint x="260" y="540" as="targetPoint" />
          </mxGeometry>
        </mxCell>
        <mxCell id="CaHp7utGRdH5ZOx2nv2D-65" value="" style="endArrow=none;html=1;rounded=0;exitX=0;exitY=0.3333333333333333;exitDx=0;exitDy=0;exitPerimeter=0;" edge="1" parent="1" source="CaHp7utGRdH5ZOx2nv2D-4" target="CaHp7utGRdH5ZOx2nv2D-24">
          <mxGeometry width="50" height="50" relative="1" as="geometry">
            <mxPoint x="460" y="850" as="sourcePoint" />
            <mxPoint x="510" y="800" as="targetPoint" />
          </mxGeometry>
        </mxCell>
        <mxCell id="CaHp7utGRdH5ZOx2nv2D-66" value="" style="endArrow=none;html=1;rounded=0;entryX=1;entryY=0.3333333333333333;entryDx=0;entryDy=0;entryPerimeter=0;" edge="1" parent="1" source="CaHp7utGRdH5ZOx2nv2D-24" target="CaHp7utGRdH5ZOx2nv2D-3">
          <mxGeometry width="50" height="50" relative="1" as="geometry">
            <mxPoint x="460" y="850" as="sourcePoint" />
            <mxPoint x="410" y="580" as="targetPoint" />
          </mxGeometry>
        </mxCell>
        <mxCell id="CaHp7utGRdH5ZOx2nv2D-71" style="edgeStyle=orthogonalEdgeStyle;rounded=0;orthogonalLoop=1;jettySize=auto;html=1;entryX=0.5;entryY=1;entryDx=0;entryDy=0;startArrow=block;startFill=0;endArrow=none;endFill=0;" edge="1" parent="1" target="CaHp7utGRdH5ZOx2nv2D-19">
          <mxGeometry relative="1" as="geometry">
            <mxPoint x="510" y="990" as="sourcePoint" />
            <mxPoint x="350" y="1040" as="targetPoint" />
            <Array as="points">
              <mxPoint x="510" y="1070" />
            </Array>
          </mxGeometry>
        </mxCell>
        <mxCell id="CaHp7utGRdH5ZOx2nv2D-72" value="&amp;lt;&amp;lt;include&amp;gt;&amp;gt;" style="edgeLabel;html=1;align=center;verticalAlign=middle;resizable=0;points=[];" vertex="1" connectable="0" parent="CaHp7utGRdH5ZOx2nv2D-71">
          <mxGeometry x="0.3164" relative="1" as="geometry">
            <mxPoint x="30" as="offset" />
          </mxGeometry>
        </mxCell>
        <mxCell id="CaHp7utGRdH5ZOx2nv2D-73" value="" style="endArrow=none;html=1;rounded=0;entryX=1;entryY=0.3333333333333333;entryDx=0;entryDy=0;entryPerimeter=0;exitX=0.033;exitY=0.637;exitDx=0;exitDy=0;exitPerimeter=0;" edge="1" parent="1" source="CaHp7utGRdH5ZOx2nv2D-25" target="CaHp7utGRdH5ZOx2nv2D-4">
          <mxGeometry width="50" height="50" relative="1" as="geometry">
            <mxPoint x="30" y="440" as="sourcePoint" />
            <mxPoint x="80" y="390" as="targetPoint" />
          </mxGeometry>
        </mxCell>
        <mxCell id="CaHp7utGRdH5ZOx2nv2D-74" value="" style="endArrow=none;html=1;rounded=0;exitX=0;exitY=0.5;exitDx=0;exitDy=0;" edge="1" parent="1" source="CaHp7utGRdH5ZOx2nv2D-23">
          <mxGeometry width="50" height="50" relative="1" as="geometry">
            <mxPoint x="30" y="230" as="sourcePoint" />
            <mxPoint x="340" y="30" as="targetPoint" />
          </mxGeometry>
        </mxCell>
        <mxCell id="CaHp7utGRdH5ZOx2nv2D-75" value="" style="endArrow=none;html=1;rounded=0;exitX=0;exitY=0.5;exitDx=0;exitDy=0;" edge="1" parent="1" source="CaHp7utGRdH5ZOx2nv2D-22">
          <mxGeometry width="50" height="50" relative="1" as="geometry">
            <mxPoint x="30" y="230" as="sourcePoint" />
            <mxPoint x="330" y="30" as="targetPoint" />
          </mxGeometry>
        </mxCell>
        <mxCell id="CaHp7utGRdH5ZOx2nv2D-76" value="" style="endArrow=none;html=1;rounded=0;exitX=0;exitY=0.5;exitDx=0;exitDy=0;entryX=1;entryY=0.3333333333333333;entryDx=0;entryDy=0;entryPerimeter=0;" edge="1" parent="1" source="CaHp7utGRdH5ZOx2nv2D-21" target="CaHp7utGRdH5ZOx2nv2D-4">
          <mxGeometry width="50" height="50" relative="1" as="geometry">
            <mxPoint x="30" y="230" as="sourcePoint" />
            <mxPoint x="260" y="150" as="targetPoint" />
          </mxGeometry>
        </mxCell>
        <mxCell id="CaHp7utGRdH5ZOx2nv2D-77" value="" style="endArrow=blockThin;html=1;rounded=0;endFill=0;" edge="1" parent="1">
          <mxGeometry width="50" height="50" relative="1" as="geometry">
            <mxPoint x="260" y="541.27998046875" as="sourcePoint" />
            <mxPoint x="440" y="210" as="targetPoint" />
          </mxGeometry>
        </mxCell>
      </root>
    </mxGraphModel>
  </diagram>
</mxfile>
